/* XPM */
static char * shade_prelight_xpm[] = {
"24 24 3 1",
" 	c None",
".	c #555555",
"+	c #A348B1 s active_color_1",
"........................",
"........................",
"........................",
"........................",
"........................",
"........................",
"........................",
"........++++++++........",
"........++++++++........",
"...........++...........",
"..........++++..........",
".........++++++.........",
"........++++++++........",
"...........++...........",
"...........++...........",
"...........++...........",
"...........++...........",
"........................",
"........................",
"........................",
"........................",
"........................",
"........................",
"........................"};